<?xml version="1.0" encoding="UTF-8" standalone="no"?>
<svg width="700px" height="700px" viewBox="0 0 700 700" version="1.1" xmlns="http://www.w3.org/2000/svg" xmlns:xlink="http://www.w3.org/1999/xlink">
    <!-- Generator: Sketch 3.6.1 (26313) - http://www.bohemiancoding.com/sketch -->
    <title>icon</title>
    <desc>Created with Sketch.</desc>
    <defs>
        <rect id="path-1" x="0" y="0" width="700" height="700" rx="25"></rect>
    </defs>
    <g id="Page-1" stroke="none" stroke-width="1" fill="none" fill-rule="evenodd">
        <g id="Artboard" transform="translate(-306.000000, -158.000000)">
            <g id="icon" transform="translate(306.000000, 158.000000)">
                <mask id="mask-2" fill="white">
                    <use xlink:href="#path-1"></use>
                </mask>
                <g id="Mask"></g>
                <g id="bosun" mask="url(#mask-2)">
                    <g transform="translate(-50.000000, 0.000000)">
                        <g id="Group" stroke="none" stroke-width="1" fill="none" transform="translate(50.000000, 0.000000)">
                            <rect id="Rectangle-path" fill="#4BA2D9" x="0" y="0" width="700" height="350"></rect>
                            <rect id="Rectangle-path" fill="#1F5296" x="0" y="350" width="700" height="350"></rect>
                        </g>
                        <path d="M200,150 L400,350 L200,550 L0,350 L200,150 Z" id="Shape" stroke="#FFFFFF" stroke-width="15" fill="#356EB6"></path>
                        <path d="M600,150 L800,350 L600,550 L400,350 L600,150 Z" id="Shape" stroke="#FFFFFF" stroke-width="15" fill="#356EB6"></path>
                        <rect id="Rectangle-6" stroke="none" fill="#FFFFFF" x="197" y="0" width="6" height="700"></rect>
                        <rect id="Rectangle-6-Copy" stroke="none" fill="#FFFFFF" x="397" y="0" width="6" height="700"></rect>
                        <rect id="Rectangle-6-Copy-2" stroke="none" fill="#FFFFFF" x="597" y="0" width="6" height="700"></rect>
                        <circle id="Oval" stroke="#FFFFFF" stroke-width="25" fill="#1F5296" cx="200" cy="150" r="62.5"></circle>
                        <circle id="Oval" stroke="#FFFFFF" stroke-width="25" fill="#1F5296" cx="600" cy="150" r="62.5"></circle>
                        <circle id="Oval" stroke="#FFFFFF" stroke-width="25" fill="#4BA2D9" cx="200" cy="550" r="62.5"></circle>
                        <circle id="Oval" stroke="#FFFFFF" stroke-width="25" fill="#4BA2D9" cx="600" cy="550" r="62.5"></circle>
                    </g>
                </g>
            </g>
        </g>
    </g>
</svg>